<svg xmlns="http://www.w3.org/2000/svg" version="1.0" width="317.000000pt" height="106.000000pt" viewBox="0 0 317.000000 106.000000" preserveAspectRatio="xMidYMid meet">

<g transform="translate(0.000000,106.000000) scale(0.100000,-0.100000)" fill="#f2f0f0" stroke="none">
<path d="M1356 961 c-35 -38 -38 -92 -16 -266 22 -178 25 -272 10 -295 -18 -29 -31 6 -65 181 -33 165 -51 229 -63 229 -3 0 -13 -7 -23 -16 -16 -14 -18 -13 -28 19 -7 20 -19 38 -27 41 -44 17 -72 -2 -99 -67 -22 -53 -3 -46 23 9 30 61 57 58 84 -11 18 -47 18 -57 6 -150 -23 -174 -14 -278 24 -290 37 -12 61 25 68 107 5 64 6 69 13 38 4 -19 18 -59 32 -88 32 -68 54 -67 73 3 13 45 12 70 -7 240 -11 105 -21 207 -21 228 0 45 15 77 35 77 8 0 15 7 15 15 0 20 -13 19 -34 -4z m-132 -271 l6 -55 -15 45 c-17 51 -20 89 -6 75 5 -6 12 -35 15 -65z m-24 -158 c6 -53 10 -113 8 -132 -4 -49 -30 -46 -41 5 -9 45 1 225 13 225 4 0 13 -44 20 -98z" fill="#f2f0f0"/>
<path d="M2487 944 c-56 -56 -77 -124 -77 -249 0 -82 -3 -105 -14 -105 -7 0 -17 18 -22 41 -10 47 -49 84 -77 73 -21 -8 -48 -58 -73 -139 l-19 -60 -6 55 c-11 98 -19 126 -43 149 -32 30 -61 21 -86 -29 -11 -22 -30 -49 -42 -60 l-22 -21 -18 36 c-10 19 -25 35 -33 35 -19 0 -20 -2 15 72 47 98 37 181 -20 163 -47 -15 -69 -100 -79 -305 -8 -160 -20 -212 -53 -218 -36 -7 -81 125 -51 150 25 20 43 65 43 106 0 70 -49 83 -84 22 -17 -28 -21 -54 -22 -127 -1 -77 -5 -96 -23 -122 -31 -44 -47 -39 -55 15 -8 59 -8 197 0 218 4 11 19 16 43 16 27 0 32 3 21 10 -8 5 -26 10 -39 10 l-24 0 7 115 c4 63 4 115 1 115 -13 0 -34 -69 -45 -147 -9 -58 -16 -83 -26 -83 -8 0 -14 -4 -14 -10 0 -5 6 -10 13 -10 9 0 12 -29 13 -113 0 -115 14 -181 40 -191 22 -9 59 13 79 46 l18 30 20 -36 c36 -63 104 -57 129 11 7 18 14 33 18 33 3 0 12 -18 21 -39 50 -120 134 -26 116 129 -4 34 -2 52 7 59 11 9 14 -3 18 -62 6 -99 39 -161 86 -165 32 -3 34 -1 60 57 27 63 42 77 42 41 0 -30 36 -96 56 -104 36 -14 76 59 90 167 4 30 12 47 20 47 8 0 14 -6 14 -12 1 -26 20 -163 26 -180 11 -35 21 -17 32 58 5 41 13 78 16 81 3 3 20 2 38 -3 41 -12 46 -40 24 -118 -16 -53 -16 -53 -53 -51 -126 8 -259 -37 -303 -101 -71 -106 13 -234 119 -180 28 15 51 53 51 84 0 26 -28 62 -57 73 -37 14 -49 -1 -14 -18 61 -30 29 -103 -45 -103 -36 0 -64 26 -64 59 0 36 30 89 62 113 45 31 142 58 214 58 l63 0 -6 -64 c-6 -62 -5 -66 25 -95 26 -26 38 -31 79 -31 55 0 107 27 124 64 22 47 -34 109 -114 126 -35 7 -34 2 -21 101 7 52 -7 89 -34 89 -9 0 1 10 23 23 52 29 83 85 70 123 -6 16 -22 35 -36 43 -56 31 -118 -25 -156 -139 -13 -40 -19 -49 -21 -32 -2 12 17 64 42 116 58 118 95 252 81 293 -15 41 -44 40 -88 -3z m70 -54 c-7 -64 -82 -270 -98 -270 -5 0 -7 17 -4 38 2 20 7 72 10 114 9 118 35 178 78 178 18 0 19 -5 14 -60z m-572 -20 c4 -11 1 -37 -6 -58 -15 -46 -57 -132 -65 -132 -8 0 4 106 18 150 18 60 41 77 53 40z m185 -233 c13 -57 -1 -222 -20 -241 -28 -28 -60 159 -40 234 23 85 42 88 60 7z m-376 -4 c0 -23 -9 -54 -20 -70 l-19 -28 -3 49 c-4 67 4 98 26 94 13 -3 17 -14 16 -45z m555 5 c14 -41 9 -44 -25 -15 -18 16 -25 30 -21 40 9 24 34 10 46 -25z m259 30 c19 -19 15 -34 -19 -73 -28 -31 -76 -65 -94 -65 -11 0 -4 47 14 86 26 58 70 81 99 52z m-636 -43 c6 -14 8 -28 5 -31 -10 -11 -37 17 -37 37 0 27 18 23 32 -6z m384 -101 c-6 -53 -29 -118 -45 -129 -6 -3 -14 2 -19 12 -10 18 -17 126 -14 190 l2 33 40 -28 c40 -27 41 -27 36 -78z m-426 76 c0 -5 16 -16 35 -24 35 -15 35 -15 35 -78 0 -68 -16 -111 -42 -116 -13 -2 -19 9 -27 50 -13 72 -19 178 -9 178 4 0 8 -4 8 -10z m747 -310 c75 -33 63 -102 -23 -130 -42 -14 -70 -6 -90 26 -17 25 -13 78 8 117 11 21 34 18 105 -13z" fill="#f2f0f0"/>
<path d="M504 663 c3 -27 9 -110 13 -185 3 -76 10 -138 14 -138 18 0 27 41 32 155 5 118 12 155 27 155 15 0 30 -91 30 -189 0 -56 4 -101 9 -101 19 0 31 66 31 164 0 76 4 107 16 124 8 12 19 22 25 22 5 0 9 -57 9 -134 0 -74 4 -146 10 -160 12 -33 43 -34 68 -1 19 24 20 24 25 5 9 -33 45 -25 69 15 11 20 22 34 24 32 9 -8 -29 -196 -47 -233 -28 -59 -53 -79 -101 -79 -72 0 -111 78 -67 132 16 19 63 16 82 -5 22 -25 21 -38 -4 -56 -22 -15 -18 -36 6 -36 18 0 35 31 35 63 0 52 -92 93 -134 58 -22 -19 -31 -76 -16 -112 17 -41 47 -59 97 -59 35 0 50 7 82 35 72 66 128 236 138 420 5 93 3 112 -10 123 -26 22 -34 7 -40 -77 -5 -78 -47 -201 -69 -201 -5 0 -5 42 -1 98 13 162 11 187 -12 187 -18 0 -21 -9 -27 -112 -9 -123 -25 -188 -48 -188 -13 0 -15 21 -12 139 2 112 0 142 -13 162 -20 31 -48 30 -74 -2 l-21 -26 -18 22 c-24 29 -48 21 -66 -21 l-13 -31 -7 28 c-17 68 -51 73 -42 7z" fill="#f2f0f0"/>
<path d="M1425 686 c-78 -78 -12 -373 74 -326 40 21 68 161 51 246 -20 94 -75 130 -125 80z m102 -54 c29 -70 2 -242 -38 -242 -36 0 -63 244 -30 283 19 23 49 5 68 -41z" fill="#f2f0f0"/>
<path d="M100 586 c0 -7 5 -17 12 -24 9 -9 9 -12 1 -12 -7 0 -15 9 -18 20 -3 11 -10 20 -15 20 -5 0 -4 -12 2 -26 9 -20 9 -30 0 -45 -18 -28 -14 -34 8 -14 20 18 21 18 15 -1 -5 -16 -4 -16 11 4 9 12 21 22 27 22 7 0 7 -4 -1 -12 -7 -7 -12 -18 -12 -26 0 -7 11 -1 26 15 22 25 24 25 14 5 -6 -13 -9 -26 -6 -29 3 -3 11 6 17 21 12 26 13 26 126 26 83 0 113 -3 113 -12 0 -7 5 -5 11 5 8 14 8 22 0 30 -8 8 -11 8 -11 -1 0 -9 -32 -12 -114 -12 -110 0 -114 1 -130 25 -9 14 -20 24 -24 24 -4 -1 -9 0 -12 1 -21 8 -40 6 -40 -4z" fill="#f2f0f0"/>
<path d="M2933 563 c5 -23 4 -23 -108 -23 -100 0 -114 2 -118 18 -4 16 -4 16 -12 0 -9 -22 1 -52 15 -43 5 3 65 8 132 11 111 4 121 3 104 -11 -15 -11 -17 -18 -9 -26 8 -8 14 -6 22 9 8 15 25 22 66 27 30 4 55 11 55 15 0 4 -30 10 -66 12 -42 3 -69 9 -76 19 -7 11 -9 9 -5 -8z" fill="#f2f0f0"/>
</g>
</svg>